<svg aria-hidden="true" style="position: absolute; width: 0; height: 0; overflow: hidden;" version="1.1" xmlns="http://www.w3.org/2000/svg" xmlns:xlink="http://www.w3.org/1999/xlink">
<defs>
<symbol id="icon-react-original" viewBox="0 0 32 32">
<title>react-original</title>
<path d="M18.85 16c0 1.574-1.276 2.85-2.85 2.85s-2.85-1.276-2.85-2.85c0-1.574 1.276-2.85 2.85-2.85s2.85 1.276 2.85 2.85z"></path>
<path d="M26.825 11.3c-0.55-0.2-1.125-0.4-1.725-0.575 0.15-0.6 0.275-1.2 0.375-1.775 0.525-3.3-0.050-5.625-1.65-6.525-0.475-0.275-1-0.4-1.6-0.4-1.75 0-3.975 1.3-6.225 3.475-2.25-2.175-4.475-3.475-6.225-3.475-0.6 0-1.125 0.125-1.6 0.4-1.6 0.925-2.175 3.25-1.65 6.525 0.1 0.575 0.225 1.175 0.375 1.775-0.6 0.175-1.175 0.35-1.725 0.575-3.125 1.2-4.825 2.85-4.825 4.7s1.725 3.5 4.825 4.7c0.55 0.2 1.125 0.4 1.725 0.575-0.15 0.6-0.275 1.2-0.375 1.775-0.525 3.3 0.050 5.625 1.65 6.525 0.475 0.275 1 0.4 1.6 0.4 1.775 0 4-1.3 6.225-3.475 2.25 2.175 4.475 3.475 6.225 3.475 0.6 0 1.125-0.125 1.6-0.4 1.6-0.925 2.175-3.25 1.65-6.525-0.1-0.575-0.225-1.175-0.375-1.775 0.6-0.175 1.175-0.35 1.725-0.575 3.125-1.2 4.825-2.85 4.825-4.7s-1.7-3.5-4.825-4.7zM23.125 3.675c1.025 0.6 1.375 2.45 0.95 5.075-0.075 0.525-0.2 1.075-0.35 1.65-1.3-0.3-2.675-0.5-4.125-0.625-0.85-1.2-1.725-2.275-2.6-3.25 1.85-1.825 3.725-3.075 5.25-3.075 0.325 0 0.625 0.075 0.875 0.225zM20.325 18.5c-0.45 0.8-0.975 1.6-1.525 2.4-0.925 0.075-1.85 0.1-2.8 0.1-0.975 0-1.9-0.025-2.8-0.1-0.55-0.8-1.050-1.6-1.5-2.4-0.475-0.825-0.925-1.675-1.325-2.5 0.4-0.825 0.85-1.675 1.325-2.5 0.45-0.8 0.975-1.6 1.525-2.4 0.925-0.075 1.85-0.1 2.8-0.1 0.975 0 1.9 0.025 2.8 0.1 0.55 0.8 1.050 1.6 1.5 2.4 0.475 0.825 0.925 1.675 1.325 2.5-0.425 0.825-0.85 1.65-1.325 2.5zM22.4 17.675c0.375 0.875 0.675 1.725 0.95 2.575-0.85 0.2-1.75 0.35-2.7 0.475 0.3-0.475 0.625-0.975 0.9-1.5 0.3-0.525 0.575-1.050 0.85-1.55zM16 24.45c-0.6-0.65-1.175-1.35-1.725-2.075 0.575 0.025 1.15 0.050 1.725 0.050s1.15-0.025 1.725-0.050c-0.55 0.725-1.125 1.425-1.725 2.075zM11.35 20.7c-0.95-0.125-1.85-0.275-2.7-0.475 0.275-0.825 0.575-1.7 0.95-2.575 0.275 0.5 0.55 1.025 0.85 1.525 0.3 0.55 0.6 1.025 0.9 1.525zM9.6 14.325c-0.375-0.875-0.675-1.725-0.95-2.575 0.85-0.2 1.75-0.35 2.7-0.475-0.3 0.475-0.625 0.975-0.9 1.5-0.3 0.525-0.575 1.050-0.85 1.55zM16 7.55c0.6 0.65 1.175 1.35 1.725 2.075-0.575-0.025-1.15-0.050-1.725-0.050s-1.15 0.025-1.725 0.050c0.55-0.725 1.125-1.425 1.725-2.075zM21.55 12.8l-0.9-1.5c0.95 0.125 1.85 0.275 2.7 0.475-0.275 0.825-0.575 1.7-0.95 2.575-0.275-0.525-0.55-1.050-0.85-1.55zM7.925 8.75c-0.425-2.625-0.075-4.475 0.95-5.075 0.25-0.15 0.55-0.225 0.875-0.225 1.5 0 3.375 1.225 5.25 3.075-0.875 0.95-1.75 2.050-2.6 3.25-1.45 0.125-2.825 0.35-4.125 0.625-0.15-0.575-0.25-1.125-0.35-1.65zM1.75 16c0-1.175 1.425-2.425 3.925-3.35 0.5-0.2 1.050-0.375 1.6-0.525 0.4 1.25 0.9 2.575 1.5 3.9-0.6 1.325-1.125 2.625-1.5 3.875-3.45-1-5.525-2.5-5.525-3.9zM8.875 28.325c-1.025-0.6-1.375-2.45-0.95-5.075 0.075-0.525 0.2-1.075 0.35-1.65 1.3 0.3 2.675 0.5 4.125 0.625 0.85 1.2 1.725 2.275 2.6 3.25-1.85 1.825-3.725 3.075-5.25 3.075-0.325 0-0.625-0.075-0.875-0.225zM24.075 23.25c0.425 2.625 0.075 4.475-0.95 5.075-0.25 0.15-0.55 0.225-0.875 0.225-1.5 0-3.375-1.225-5.25-3.075 0.875-0.95 1.75-2.050 2.6-3.25 1.45-0.125 2.825-0.35 4.125-0.625 0.15 0.575 0.25 1.125 0.35 1.65zM26.325 19.35c-0.5 0.2-1.050 0.375-1.6 0.525-0.4-1.25-0.9-2.575-1.5-3.9 0.6-1.325 1.125-2.625 1.5-3.875 3.45 1 5.525 2.5 5.525 3.9 0 1.175-1.45 2.425-3.925 3.35z"></path>
</symbol>
<symbol id="icon-css3-plain" viewBox="0 0 32 32">
<title>css3-plain</title>
<path d="M2.19 0.25l2.514 28.221 11.28 3.145 11.311-3.157 2.516-28.209h-27.62zM24.588 6.715l-0.837 9.401 0.003 0.051-0.003 0.117v-0.001l-0.595 6.573-0.066 0.584-7.096 1.966-7.078-1.972-0.479-5.435h3.471l0.246 2.764 3.846 1.044 3.861-1.057 0.408-4.5h-8.071l-0.069-0.761-0.158-1.782-0.083-0.957h8.687l0.316-3.5h-13.232l-0.069-0.76-0.157-1.783-0.083-0.957h17.32l-0.083 0.965z"></path>
</symbol>
<symbol id="icon-git-plain" viewBox="0 0 32 32">
<title>git-plain</title>
<path d="M31.186 14.595l-13.779-13.778c-0.793-0.793-2.080-0.793-2.874 0l-2.861 2.861 3.63 3.629c0.844-0.285 1.811-0.094 2.483 0.579 0.676 0.677 0.866 1.652 0.573 2.498l3.498 3.498c0.846-0.292 1.823-0.103 2.498 0.574 0.945 0.944 0.945 2.475 0 3.42s-2.475 0.945-3.421 0c-0.71-0.711-0.886-1.755-0.526-2.63l-3.262-3.262-0 8.585c0.23 0.114 0.448 0.266 0.64 0.457 0.945 0.944 0.945 2.474 0 3.421-0.945 0.944-2.476 0.944-3.42 0-0.944-0.946-1.022-2.476-0.078-3.421 0.233-0.233 0.464-0.41 0.714-0.527v-8.665c-0.25-0.118-0.48-0.293-0.714-0.528-0.715-0.715-0.849-1.765-0.482-2.644l-3.558-3.578-9.438 9.447c-0.794 0.794-0.789 2.081 0.005 2.875l13.781 13.778c0.793 0.794 2.081 0.794 2.876 0l13.715-13.715c0.794-0.794 0.794-2.082 0.001-2.875z"></path>
</symbol>
<symbol id="icon-html5-plain" viewBox="0 0 32 32">
<title>html5-plain</title>
<path d="M2.258 0.5l2.501 28.023 11.224 3.1 11.255-3.097 2.504-28.027h-27.484zM24.54 7.135l-0.157 1.793-0.069 0.822h-13.166l0.314 3.5h12.539l-0.084 0.868-0.808 9.030-0.059 0.567-7.058 1.942-7.044-1.856-0.478-5.302h3.454l0.245 2.73 3.833 1.020v-0.137l3.839-0.969 0.401-4.395h-11.925l-0.846-9.529-0.082-0.971h17.235l-0.082 0.885z"></path>
</symbol>
<symbol id="icon-javascript-plain" viewBox="0 0 32 32">
<title>javascript-plain</title>
<path d="M0.5 0.25v31.25h31.25v-31.25h-31.25zM17.030 26.878c-0.461 0.937-1.342 1.553-2.362 1.85-1.568 0.36-3.067 0.155-4.183-0.515-0.746-0.458-1.329-1.163-1.725-1.975l2.38-1.457c0.021 0.009 0.083 0.122 0.167 0.268 0.303 0.509 0.565 0.869 1.080 1.121 0.505 0.172 1.615 0.283 2.044-0.607 0.262-0.453 0.178-1.907 0.178-3.516-0-2.529 0.011-5.047 0.011-7.547h2.927c0 2.75 0.015 5.355 0 8.038 0.006 1.645 0.149 3.111-0.517 4.34zM29.173 26.051c-1.018 3.48-6.691 3.593-8.957 1.294-0.479-0.541-0.779-0.824-1.065-1.449 1.205-0.693 1.205-0.693 2.377-1.371 0.637 0.979 1.226 1.517 2.285 1.737 1.437 0.175 2.883-0.318 2.558-1.845-0.333-1.247-2.942-1.55-4.718-2.883-1.803-1.211-2.225-4.153-0.744-5.834 0.494-0.622 1.336-1.086 2.219-1.309l0.922-0.119c1.77-0.036 2.877 0.432 3.689 1.339 0.226 0.229 0.41 0.476 0.756 1.011-0.943 0.601-0.94 0.595-2.291 1.47-0.288-0.622-0.767-1.012-1.273-1.181-0.785-0.238-1.776 0.021-1.982 0.851-0.071 0.256-0.056 0.494 0.057 0.916 0.318 0.726 1.386 1.041 2.344 1.482 2.758 1.119 3.689 2.318 3.918 3.745 0.221 1.229-0.053 2.026-0.095 2.145z"></path>
</symbol>
<symbol id="icon-nodejs-plain" viewBox="0 0 32 32">
<title>nodejs-plain</title>
<path d="M28.169 7.583l-11.036-6.401c-0.695-0.396-1.606-0.396-2.307 0l-11.122 6.401c-0.717 0.413-1.205 1.189-1.205 2.018v12.786c0 0.83 0.498 1.606 1.216 2.021l2.932 1.672c1.407 0.693 1.796 0.693 2.437 0.693 2.083 0 3.165-1.26 3.165-3.457v-12.623c0-0.178 0.111-0.444-0.064-0.444h-1.405c-0.178 0-0.53 0.265-0.53 0.443v12.622c0 0.974-0.904 1.943-2.55 1.12l-3.030-1.753c-0.106-0.058-0.169-0.173-0.169-0.295v-12.786c0-0.12 0.116-0.242 0.223-0.303l11.095-6.39c0.104-0.059 0.251-0.059 0.354 0l10.991 6.389c0.105 0.063 0.088 0.181 0.088 0.305v12.786c0 0.122 0.023 0.241-0.081 0.299l-11.033 6.394c-0.095 0.057-0.217 0.057-0.321 0l-2.829-1.687c-0.085-0.049-0.188-0.067-0.27-0.021-0.786 0.446-0.932 0.505-1.67 0.761-0.182 0.063-0.45 0.173 0.102 0.482l3.7 2.189c0.354 0.205 0.757 0.311 1.162 0.311 0.41 0 0.812-0.107 1.166-0.311l10.994-6.395c0.718-0.418 1.081-1.191 1.081-2.021v-12.786c-0-0.83-0.363-1.604-1.081-2.018zM19.432 20.361c-2.932 0-3.577-0.809-3.793-2.267-0.025-0.157-0.159-0.345-0.319-0.345h-1.433c-0.177 0-0.32 0.215-0.32 0.392 0 1.866 1.015 4.128 5.864 4.128 3.509 0 5.522-1.364 5.522-3.777 0-2.393-1.617-3.021-5.020-3.471-3.441-0.455-3.79-0.684-3.79-1.491 0-0.665 0.296-1.551 2.843-1.551 2.276 0 3.115 0.489 3.46 2.023 0.030 0.144 0.162 0.248 0.31 0.248h1.439c0.088 0 0.173-0.036 0.235-0.099 0.060-0.068 0.092-0.153 0.084-0.245-0.223-2.642-1.978-3.873-5.528-3.873-3.158 0-5.041 1.333-5.041 3.569 0 2.424 1.874 3.095 4.905 3.394 3.626 0.355 3.908 0.886 3.908 1.599 0 1.239-0.994 1.767-3.327 1.767z"></path>
</symbol>
<symbol id="icon-sass-original" viewBox="0 0 32 32">
<title>sass-original</title>
<path d="M0.305 14.039c0 0.176 0.052 0.292 0.081 0.405 0.189 0.733 0.595 1.363 1.077 1.936 0.686 0.818 1.527 1.477 2.389 2.096 0.747 0.537 1.509 1.062 2.259 1.595 0.129 0.091 0.25 0.197 0.39 0.309-0.12 0.065-0.22 0.122-0.324 0.175-0.99 0.502-1.942 1.065-2.82 1.747-0.529 0.411-1.040 0.848-1.402 1.419-0.581 0.918-0.787 1.896-0.354 2.94 0.127 0.305 0.32 0.569 0.592 0.763 0.088 0.063 0.187 0.125 0.29 0.15 0.264 0.062 0.534 0.103 0.802 0.152l0.758-0c0.838-0.075 1.602-0.362 2.292-0.838 1.078-0.744 1.804-1.741 2.116-3.022 0.227-0.93 0.236-1.862-0.031-2.788-0.025-0.086-0.056-0.17-0.088-0.253s-0.071-0.164-0.116-0.268l1.719-0.988 0.026 0.022c-0.031 0.102-0.065 0.204-0.093 0.308-0.204 0.746-0.34 1.505-0.291 2.279 0.052 0.825 0.282 1.597 0.765 2.287 0.39 0.558 1.321 0.578 1.736 0.019 0.147-0.199 0.29-0.407 0.397-0.628 0.28-0.579 0.54-1.168 0.807-1.753l0.047-0.107c-0.019 0.277-0.042 0.52-0.052 0.764-0.016 0.38 0.006 0.758 0.136 1.12 0.111 0.309 0.3 0.541 0.655 0.581 0.242 0.028 0.436-0.083 0.614-0.224 0.278-0.22 0.505-0.491 0.673-0.8 0.475-0.873 0.963-1.74 1.394-2.635 0.466-0.968 0.873-1.964 1.306-2.948l0.072-0.174c0.102 0.402 0.174 0.795 0.305 1.168 0.152 0.432 0.341 0.854 0.547 1.264 0.097 0.194 0.086 0.32-0.049 0.482-0.564 0.68-1.118 1.368-1.673 2.056-0.123 0.152-0.245 0.306-0.347 0.472-0.062 0.101-0.103 0.224-0.12 0.341-0.033 0.224 0.105 0.441 0.346 0.493 0.22 0.047 0.453 0.065 0.677 0.048 0.774-0.057 1.477-0.329 2.099-0.789 0.805-0.596 1.064-1.41 0.869-2.375-0.053-0.262-0.146-0.516-0.237-0.768-0.041-0.114-0.044-0.194 0.031-0.299 0.644-0.919 1.194-1.895 1.705-2.892 0.020-0.039 0.041-0.078 0.076-0.12 0.166 0.863 0.415 1.694 0.862 2.448-0.228 0.22-0.454 0.419-0.658 0.639-0.45 0.483-0.84 1.009-1.043 1.649-0.087 0.276-0.155 0.556-0.116 0.851 0.061 0.458 0.436 0.755 0.886 0.651 0.963-0.223 1.795-0.677 2.403-1.481 0.409-0.541 0.446-1.145 0.275-1.778-0.047-0.172-0.103-0.341-0.163-0.538 0.238-0.074 0.47-0.162 0.709-0.217 1.245-0.284 2.476-0.235 3.675 0.215 0.7 0.262 1.266 0.702 1.602 1.393 0.41 0.845 0.183 1.646-0.613 2.18-0.074 0.050-0.159 0.089-0.221 0.151-0.038 0.038-0.061 0.115-0.051 0.168 0.005 0.031 0.087 0.069 0.133 0.069 0.262-0.002 0.474-0.139 0.678-0.28 0.511-0.353 0.883-0.828 0.963-1.454l0.016-0.047-0.019-0.407c-0.008-0.023 0.006-0.047 0.004-0.064-0.108-0.911-0.595-1.618-1.303-2.172-0.82-0.641-1.788-0.905-2.812-0.947-0.834-0.034-1.655 0.090-2.441 0.376-0.224 0.081-0.447 0.177-0.672 0.268-0.030-0.055-0.063-0.107-0.090-0.162-0.232-0.474-0.512-0.927-0.574-1.471-0.044-0.386-0.098-0.771-0.006-1.153 0.088-0.367 0.203-0.728 0.311-1.091 0.056-0.187 0.017-0.291-0.162-0.375-0.062-0.029-0.13-0.055-0.197-0.065-0.438-0.063-0.869-0.027-1.293 0.096-0.15 0.044-0.259 0.128-0.292 0.294-0.019 0.095-0.058 0.187-0.085 0.28-0.111 0.391-0.189 0.789-0.368 1.161-0.448 0.934-0.96 1.832-1.485 2.724-0.057 0.096-0.116 0.191-0.188 0.308-0.184-0.385-0.38-0.73-0.44-1.136-0.067-0.458-0.12-0.915-0.006-1.37 0.085-0.339 0.195-0.672 0.297-1.006 0.048-0.159 0.026-0.242-0.118-0.326-0.073-0.042-0.155-0.080-0.237-0.092-0.454-0.067-0.901-0.032-1.338 0.11-0.136 0.044-0.207 0.132-0.248 0.272-0.122 0.413-0.226 0.836-0.397 1.229-0.694 1.59-1.407 3.172-2.12 4.753-0.149 0.33-0.323 0.649-0.491 0.971-0.043 0.081-0.104 0.153-0.158 0.23-0.043-0.050-0.059-0.085-0.059-0.119 0.001-0.203-0.023-0.413 0.016-0.609 0.117-0.595 0.252-1.186 0.395-1.775 0.117-0.486 0.254-0.968 0.384-1.452 0.044-0.162 0.044-0.313-0.072-0.449-0.195-0.228-0.603-0.278-0.845-0.102l-0.107 0.061 0.021-0.172c0.051-0.37 0.061-0.738-0.040-1.102-0.127-0.454-0.45-0.715-0.921-0.701-0.22 0.007-0.45 0.044-0.653 0.124-0.855 0.335-1.512 0.928-2.072 1.642-0.051 0.065-0.118 0.124-0.189 0.163-0.723 0.401-1.449 0.797-2.174 1.195l-0.807 0.442c-0.216-0.206-0.413-0.421-0.636-0.602-0.682-0.556-1.375-1.098-2.061-1.648-0.609-0.487-1.198-0.995-1.649-1.64-0.336-0.48-0.552-1.005-0.572-1.599-0.026-0.756 0.188-1.447 0.573-2.091 0.493-0.823 1.164-1.483 1.903-2.082 0.781-0.633 1.626-1.169 2.502-1.66 1.225-0.686 2.486-1.293 3.837-1.694 1.386-0.411 2.791-0.646 4.241-0.482 0.57 0.064 1.123 0.195 1.632 0.474 0.389 0.213 0.709 0.492 0.857 0.929 0.146 0.43 0.142 0.865 0.041 1.301-0.206 0.883-0.69 1.612-1.299 2.263-0.998 1.067-2.216 1.793-3.588 2.273-0.791 0.277-1.605 0.45-2.441 0.521-0.682 0.057-1.35-0.003-1.996-0.241-0.428-0.157-0.8-0.398-1.1-0.747-0.053-0.063-0.122-0.13-0.222-0.072-0.098 0.057-0.115 0.15-0.082 0.245 0.055 0.156 0.105 0.319 0.191 0.46 0.214 0.351 0.527 0.606 0.871 0.825 0.661 0.42 1.399 0.562 2.165 0.594 1.162 0.050 2.296-0.123 3.413-0.435 1.596-0.445 2.983-1.231 4.096-2.471 0.927-1.033 1.588-2.198 1.73-3.605 0.069-0.687-0.005-1.359-0.326-1.986-0.349-0.679-0.903-1.183-1.566-1.531-0.965-0.506-2.008-0.801-3.083-0.801h-1.078c-1.303 0-2.562 0.373-3.786 0.819-0.927 0.337-1.835 0.735-2.717 1.176-1.921 0.96-3.709 2.117-5.179 3.708-0.732 0.793-1.352 1.668-1.708 2.697-0.104 0.302-0.203 0.625-0.278 0.937zM7.286 22.59c-0.083 1.115-0.588 2.018-1.414 2.75-0.465 0.412-0.997 0.704-1.618 0.808-0.225 0.037-0.455 0.046-0.673-0.047-0.311-0.133-0.381-0.409-0.387-0.703-0.009-0.469 0.155-0.893 0.38-1.297 0.294-0.526 0.725-0.927 1.185-1.302 0.725-0.59 1.511-1.090 2.317-1.561l0.061-0.025c0.125 0.46 0.184 0.914 0.149 1.377zM13.576 17.745c-0.059 0.356-0.132 0.712-0.236 1.057-0.36 1.194-0.821 2.352-1.321 3.493-0.092 0.211-0.226 0.404-0.343 0.604-0.018 0.031-0.045 0.058-0.071 0.084-0.145 0.143-0.281 0.135-0.354-0.052-0.085-0.217-0.137-0.449-0.182-0.679-0.030-0.154-0.023-0.316-0.033-0.474 0.010-1.123 0.352-2.145 0.934-3.095 0.24-0.392 0.501-0.765 0.899-1.014 0.123-0.076 0.26-0.137 0.399-0.177 0.213-0.060 0.343 0.038 0.308 0.252zM17.867 23.212l1.542-1.801c0.064 0.669-1.073 2.004-1.542 1.801zM22.793 22c-0.109 0.063-0.228 0.108-0.34 0.165-0.102 0.053-0.136-0-0.139-0.088-0.002-0.060 0.007-0.122 0.023-0.18 0.208-0.735 0.591-1.361 1.162-1.872l0.040-0.020c0.271 0.759-0.042 1.592-0.747 1.995z"></path>
</symbol>
<symbol id="icon-download" viewBox="0 0 20 20">
<title>download</title>
<path d="M15 7h-3v-6h-4v6h-3l5 5 5-5zM19.338 13.532c-0.21-0.224-1.611-1.723-2.011-2.114-0.265-0.259-0.644-0.418-1.042-0.418h-1.757l3.064 2.994h-3.544c-0.102 0-0.194 0.052-0.24 0.133l-0.816 1.873h-5.984l-0.816-1.873c-0.046-0.081-0.139-0.133-0.24-0.133h-3.544l3.063-2.994h-1.756c-0.397 0-0.776 0.159-1.042 0.418-0.4 0.392-1.801 1.891-2.011 2.114-0.489 0.521-0.758 0.936-0.63 1.449l0.561 3.074c0.128 0.514 0.691 0.936 1.252 0.936h16.312c0.561 0 1.124-0.422 1.252-0.936l0.561-3.074c0.126-0.513-0.142-0.928-0.632-1.449z"></path>
</symbol>
<symbol id="icon-scissors" viewBox="0 0 20 20">
<title>scissors</title>
<path d="M8.38 5.59c0-2.038-1.652-3.69-3.69-3.69s-3.69 1.652-3.69 3.69c0 2.038 1.652 3.69 3.69 3.69 0.96 0 1.826-0.376 2.483-0.976l1.827 1.687 0.012 0.009-0.004 0.003-1.836 1.693c-0.656-0.6-1.522-0.976-2.482-0.976-2.038 0-3.69 1.652-3.69 3.69s1.652 3.69 3.69 3.69 3.69-1.652 3.69-3.69c0-0.297-0.044-0.582-0.111-0.858l2.844-1.991 4.127 3.065c2.212 1.549 3.76-0.663 3.76-0.663l-10.731-7.515c0.066-0.276 0.111-0.561 0.111-0.858zM4.69 7.39c-0.994 0-1.8-0.806-1.8-1.8s0.806-1.8 1.8-1.8 1.8 0.806 1.8 1.8-0.806 1.8-1.8 1.8zM4.69 16.21c-0.994 0-1.8-0.806-1.8-1.8s0.806-1.8 1.8-1.8 1.8 0.806 1.8 1.8-0.806 1.8-1.8 1.8zM19 6.038c0 0-1.548-2.212-3.76-0.663l-3.205 2.235 2.354 1.648 4.611-3.22z"></path>
</symbol>
<symbol id="icon-linkedin" viewBox="0 0 20 20">
<title>linkedin</title>
<path d="M5 3c0 1.062-0.71 1.976-2.001 1.976-1.215 0-1.999-0.862-1.999-1.924 0-1.090 0.76-2.052 2-2.052s1.976 0.91 2 2zM1 19v-13h4v13h-4z"></path>
<path d="M7 10.444c0-1.545-0.051-2.836-0.102-3.951h3.594l0.178 1.723h0.076c0.506-0.811 1.746-2 3.822-2 2.532 0 4.432 1.695 4.432 5.342v7.442h-4v-6.861c0-1.594-0.607-2.81-2-2.81-1.062 0-1.594 0.86-1.873 1.569-0.102 0.254-0.127 0.608-0.127 0.963v7.139h-4v-8.556z"></path>
</symbol>
</defs>
</svg>
